<svg xmlns="http://www.w3.org/2000/svg" viewBox="0 0 72.86 72.86"><defs><style>.cls-1{fill:#fff;}</style></defs><title>facebook</title><g id="Capa_2" data-name="Capa 2"><g id="Capa_1-2" data-name="Capa 1"><path class="cls-1" d="M0,39.18v-5.5c.09-.41.21-.82.27-1.23C2.21,18.09,9.9,8.07,23.25,2.58,26.53,1.24,30.19.84,33.68,0h5.5a6,6,0,0,0,.93.24A36.13,36.13,0,0,1,71.37,26.3c.7,2.4,1,4.91,1.49,7.38v5.5c-.09.47-.22.92-.28,1.39-2,14.15-9.57,24.08-22.67,29.6-3.36,1.42-7.14,1.82-10.73,2.69h-5.5a10.16,10.16,0,0,0-1.09-.26C17.36,70.51,7.1,62.21,1.91,47.78.92,45,.62,42.06,0,39.18Zm50.76,7.15H41.49v20A30.33,30.33,0,1,0,6,36.77c.2,17.14,14,28.16,24.89,29.34V46.3H22.1V36.7h9c0-2.86-.12-5.55,0-8.23.25-4.76,1.52-9.13,6-11.64,4.82-2.67,10-1.69,15.08-1.35V23.9c-1.89,0-3.66,0-5.44,0-2.62,0-4.36,1.05-4.83,3.61a87.31,87.31,0,0,0-.77,9.27H52.24Z"/></g></g></svg>