<svg xmlns="http://www.w3.org/2000/svg" viewBox="0 0 73.28 73.28"><defs><style>.cls-1{fill:#fff;}</style></defs><title>github</title><g id="Capa_2" data-name="Capa 2"><g id="Capa_1-2" data-name="Capa 1"><path class="cls-1" d="M40,73.28H33.26c-.41-.09-.81-.21-1.23-.27-14.69-2.37-24.78-10.46-30-24.43A69.77,69.77,0,0,1,0,40V33a6.92,6.92,0,0,0,.28-1.06,36.63,36.63,0,0,1,27-30.69C29.12.73,31.06.41,33,0h7c.41.09.81.22,1.23.27A36.56,36.56,0,0,1,71.92,26.84c.55,2,.91,4.09,1.36,6.14v7c-.1.5-.22,1-.3,1.49C70.67,55.42,63.12,65.29,50,70.66,46.88,72,43.37,72.43,40,73.28ZM30.65,54.2l-2.58-.39C20.69,52.64,16.24,48.75,14.87,42c-1-5-.95-9.92,2.56-14.18a1.78,1.78,0,0,0,.2-1.4,13.08,13.08,0,0,1,.26-7.36,1.37,1.37,0,0,1,1.71-1.17c2.76.28,5,1.66,7.39,3a3.46,3.46,0,0,0,2.2.38,33.39,33.39,0,0,1,15.08,0,3.42,3.42,0,0,0,2.5-.39c2.22-1.08,4.51-2,6.82-2.92,1.06-.41,1.84,0,2.18,1.26a13.65,13.65,0,0,1,.2,7.23,1.63,1.63,0,0,0,.11,1.28c2.82,3.32,3.35,7.2,3.11,11.37-.43,7.17-4,11.92-10.79,14-1.68.52-3.43.79-5.35,1.21C47,57.47,45.33,62,45.93,65.9a30.74,30.74,0,1,0-40-27.72c.63,15.6,13.07,26,21.84,27.67C28.24,61.92,26.71,57.53,30.65,54.2Z"/></g></g></svg>