<svg xmlns="http://www.w3.org/2000/svg" viewBox="0 0 72.57 74.01"><defs><style>.cls-1{fill:#fff;}</style></defs><title>linkedin</title><g id="Capa_2" data-name="Capa 2"><g id="Capa_1-2" data-name="Capa 1"><path class="cls-1" d="M72.57,37c0,20.47-16.18,37-36.26,37S0,57.47,0,37,16.24,0,36.3,0,72.55,16.54,72.57,37ZM38.86,29H30.44V58.51h8.43V45.2c0-1.47,0-3,.05-4.42a5,5,0,0,1,.53-2.22,5.46,5.46,0,0,1,4.68-2.85,3.69,3.69,0,0,1,4,2.9,9.41,9.41,0,0,1,.37,2.47c0,5.58,0,11.17,0,16.75v.68h8.47V58c0-6,0-12.1,0-18.15a19.6,19.6,0,0,0-.25-3,9.94,9.94,0,0,0-3.58-6.66c-4-3.08-10.63-2.31-13.86,1.58l-.49.57ZM24.61,58.53V29H16.23V58.53Zm.72-38.07a4.91,4.91,0,1,0-4.89,5A4.93,4.93,0,0,0,25.33,20.46Z"/></g></g></svg>