<svg xmlns="http://www.w3.org/2000/svg" viewBox="0 0 582.41 525.79"><defs><style>.cls-1{fill:#fff;}</style></defs><title>logo--caja</title><g id="Capa_2" data-name="Capa 2"><g id="Capa_1-2" data-name="Capa 1"><g id="una_tinta" data-name="una tinta"><polygon class="cls-1" points="319.46 0.35 411.09 93.16 318.28 184.79 290.79 156.94 355.76 92.81 291.62 27.84 319.46 0.35"/><polygon class="cls-1" points="264.13 0 171.33 91.63 262.95 184.43 290.79 156.94 226.66 91.98 291.62 27.84 264.13 0"/><path class="cls-1" d="M114.27,386.13H87.53L70.29,302.25,52.17,386.13H25.28L0,285.3H21.77l17,85.34,17.82-83.88H84.9l17.24,84.17,18.12-85.63H141Z"/><path class="cls-1" d="M153.43,386.13V285.3h20.16V386.13Z"/><path class="cls-1" d="M240.8,301.08v85.05H220.64V301.08h-34.2V285.3H275v15.78Z"/><path class="cls-1" d="M357.84,315H337.23c-1.16-10.23-6.86-16.66-17.38-16.66-8,0-14.18,3.8-14.18,12,0,8.47,5.41,12.71,21.49,16.51,22.2,5.12,32.14,15.34,32.14,31.56,0,19-17.39,29.81-37.26,29.81-24.11,0-39.89-10.66-41.79-31.85h20.6c2.2,11.1,10.67,16.8,20.9,16.8,9.2,0,16.51-5,16.51-12.71,0-8.48-5.26-13.44-20.17-17-20.6-5-33.61-12.13-33.61-30.69s16.81-29.51,36.1-29.51C344.69,283.26,355.65,297,357.84,315Z"/><path class="cls-1" d="M376,386.13V285.3h20.17V386.13Z"/><path class="cls-1" d="M463.33,301.08v85.05H443.17V301.08H409V285.3h88.54v15.78Z"/><path class="cls-1" d="M582.41,386.13H509.64V285.3H581v15.78H529.81v26.6H577.3V343.6H529.81v26.6h52.6Z"/><polygon class="cls-1" points="51.59 503.64 77.03 513.2 77.03 506.78 57.87 499.92 77.03 493.12 77.03 486.74 51.59 496.3 51.59 503.64"/><path class="cls-1" d="M106.4,489.17c3.51,0,5.83,2,6.7,6.38h6c-.7-6.32-5.29-10.7-12.53-10.7-7.5,0-13.87,5.46-13.87,15.23,0,10.21,5.66,15,13.17,15,6.75,0,11.72-3.4,13.06-10.26h-6c-.87,3.89-3.3,5.94-6.69,5.94-4,0-7.24-3.29-7.24-11.07C99,492.46,102.25,489.17,106.4,489.17Z"/><path class="cls-1" d="M136.62,484.85c-9.67,0-14.53,6.7-14.53,15.07S127,515,136.62,515s14.53-6.75,14.53-15.12S146.23,484.85,136.62,484.85Zm0,25.87c-5.24,0-8.26-4.32-8.26-10.8s3-10.75,8.26-10.75,8.21,4.27,8.21,10.75S141.81,510.72,136.62,510.72Z"/><path class="cls-1" d="M176.84,488.38a11.4,11.4,0,0,0-2.06-1.87v.05a12.73,12.73,0,0,0-6.64-1.71c-7.39,0-13.87,5.08-13.87,15.55,0,8.43,4.69,14.64,12.9,14.64a12.87,12.87,0,0,0,7.51-2.16,11.32,11.32,0,0,0,2.16-2.2v3.6h5.94V474.59h-5.94Zm-8.32,22.34c-5.13,0-8-4.59-8-10.8,0-7.13,3.56-10.75,8.26-10.75,3.84,0,8.05,2.59,8.05,9.56v1.51C176.84,507.91,173,510.72,168.52,510.72Z"/><rect class="cls-1" x="190.42" y="485.61" width="5.94" height="28.68"/><path class="cls-1" d="M193.39,475.62a3.43,3.43,0,1,0,0,6.86,3.43,3.43,0,1,0,0-6.86Z"/><path class="cls-1" d="M219.12,484.85A10.78,10.78,0,0,0,212,487v0l-.05.05h0v0a14.62,14.62,0,0,0-1.94,1.94v-3.41H204v28.67h5.94V501.43c0-9,3.35-12.2,7.46-12.2s5.78,2.26,6,5.51c.11,1.45.11,2.69.11,4.05v15.49h6V498.14c0-2.33-.06-3.62-.17-5.08C228.79,488,225.27,484.85,219.12,484.85Z"/><path class="cls-1" d="M257.17,488.28a21.08,21.08,0,0,0-1.9-1.65c-1.46-1.13-4.42-1.78-6.8-1.78-7.4,0-13.88,5-13.88,15.45,0,8.42,4.8,14.47,13.07,14.47a12.38,12.38,0,0,0,7.34-2.16s1.21-1,2.16-1.88c0,.83,0,1.64-.05,2.64-.22,5.13-3.19,7.94-8.38,7.94-4.42,0-7.07-2.11-7.44-5.19l-.06-.49H235.4l0,.55c.59,6.15,5,9.61,13.23,9.61,8.65,0,14.05-4.38,14.37-13.07.05-1.57.05-3.78.05-5.57V485.61h-5.93Zm-8.33,22.17c-5.12,0-8-4.48-8-10.69,0-7.13,3.57-10.59,8.27-10.59,3.83,0,8.05,2.59,8.05,9.56V500C257.17,507.64,253.33,510.45,248.84,510.45Z"/><polygon class="cls-1" points="309.33 509.05 303.61 485.66 296.37 485.66 290.81 508.99 284.93 485.61 278.22 485.61 287.36 514.28 294.21 514.28 299.94 491.12 305.61 514.28 312.41 514.28 321.53 485.61 315.22 485.61 309.33 509.05"/><rect class="cls-1" x="325.46" y="485.61" width="5.94" height="28.68"/><path class="cls-1" d="M328.44,475.62a3.43,3.43,0,1,0,0,6.86,3.43,3.43,0,1,0,0-6.86Z"/><path class="cls-1" d="M346.11,479h-5.88v6.85h-4.06V490h4.06v15.55c0,1.62,0,2.87,0,3.84.26,3.78,2.21,5.45,6.69,5.45a31.27,31.27,0,0,0,4.38-.32v-4.1c-3.89.37-5-.22-5.19-3-.05-.75-.05-1.4-.05-2.37V490h5.62v-4.16h-5.62Z"/><path class="cls-1" d="M372.27,484.85a10.85,10.85,0,0,0-7,2.08l0,0a13.92,13.92,0,0,0-2.17,1.86V474.32h-5.95v40h5.95V501.43c0-9,3.35-12.1,7.45-12.2s5.78,2.26,6,5.51c.11,1.45.11,2.69.11,4.05v15.49h5.94V498.14c0-2.33-.06-3.62-.17-5.08C381.93,488,378.42,484.85,372.27,484.85Zm-9.18,5.46,0,0,0,0Z"/><path class="cls-1" d="M411.9,509.86,404,485.61h-6.64l11.56,30-.44,1c-1.29,3.35-3.13,4.48-5.83,4.48-.59,0-1.19,0-1.89,0v4.37a13.92,13.92,0,0,0,2.81.17c5.18,0,8.26-2.7,10.91-9.51l11.66-30.51h-6.42Z"/><path class="cls-1" d="M441.73,484.85c-9.66,0-14.52,6.7-14.52,15.07S432.07,515,441.73,515s14.53-6.75,14.53-15.12S451.34,484.85,441.73,484.85Zm0,25.87c-5.24,0-8.26-4.32-8.26-10.8s3-10.75,8.26-10.75,8.21,4.27,8.21,10.75S446.92,510.72,441.73,510.72Z"/><path class="cls-1" d="M480.65,499.11c0,8.32-3.13,11.5-7.28,11.5-3.68,0-5.73-2.05-6.16-5.18a36.55,36.55,0,0,1-.21-3.94V485.61h-5.89v17.06a32,32,0,0,0,.27,5.08c.65,3.94,4.1,7.29,10,7.29a11.33,11.33,0,0,0,7.24-2.1,14.87,14.87,0,0,0,2-2.05v3.39h5.89V485.61h-5.89Z"/><polygon class="cls-1" points="505.38 486.74 505.38 493.17 524.55 499.98 505.38 506.83 505.38 513.2 530.82 503.64 530.82 496.3 505.38 486.74"/></g></g></g></svg>